# xmcd CD database file
#
# Track frame offsets:
#	150
#	17762
#	35437
#	54087
#	77857
#	96167
#	112030
#	131125
#	155420
#	177870
#	198287
#	218415
#	228752
#
# Disc length: 3267 seconds
#
# Revision: 0
# Processed by: cddbd v1.4PL0 Copyright (c) Steve Scherf et al.
# Submitted via: CDex 1.50
#
DISCID=9f0cc10d
DTITLE=Nulle og Verdensorkestret - A global Affair
DYEAR=2001
DGENRE=Jazz
TTITLE0=On a slowboat to China
TTITLE1=You belong to me
TTITLE2=Cubano chant
TTITLE3=Mood Indigo
TTITLE4=Till there was you
TTITLE5=Peace
TTITLE6=Frenesi
TTITLE7=Månestråle
TTITLE8=Pussy cat dues
TTITLE9=Stardust
TTITLE10=Tea for two
TTITLE11=Stemningsmelodi
TTITLE12=Min nordiske bror (i sandhedens tjeneste)
EXTD=YEAR: 2001
EXTT0=
EXTT1=
EXTT2=
EXTT3=
EXTT4=
EXTT5=
EXTT6=
EXTT7=
EXTT8=
EXTT9=
EXTT10=
EXTT11=
EXTT12=
PLAYORDER=
